<?xml version="1.0" standalone="no"?>
<!DOCTYPE svg PUBLIC "-//W3C//DTD SVG 20010904//EN"
 "http://www.w3.org/TR/2001/REC-SVG-20010904/DTD/svg10.dtd">
<svg version="1.0" xmlns="http://www.w3.org/2000/svg"
 width="490.000000pt" height="490.000000pt" viewBox="0 0 490.000000 490.000000"
 preserveAspectRatio="xMidYMid meet">
<metadata>
Created by potrace 1.11, written by Peter Selinger 2001-2013
</metadata>
<g transform="translate(0.000000,490.000000) scale(0.100000,-0.100000)"
fill="#000000" stroke="none">
<path d="M1799 4521 c-355 -207 -831 -484 -1057 -615 l-412 -240 0 -761 c0
-419 3 -972 7 -1228 l6 -467 1060 -606 c583 -333 1065 -603 1071 -601 6 3 408
235 891 517 484 282 955 556 1047 609 l168 96 -3 1229 -2 1229 -1030 589
c-566 324 -1046 597 -1065 607 l-35 19 -646 -377z m1374 -802 c117 -59 168
-171 133 -290 -20 -69 -60 -117 -127 -154 l-54 -30 -325 -5 -325 -5 -52 -95
c-29 -52 -53 -98 -53 -102 0 -4 107 -8 238 -10 258 -3 270 -6 335 -67 52 -47
72 -98 72 -181 0 -64 -4 -82 -28 -122 -15 -26 -43 -59 -62 -74 -66 -50 -99
-54 -477 -54 l-349 0 3 -72 3 -73 245 -5 c229 -5 248 -6 286 -27 127 -68 168
-215 97 -345 -52 -95 -126 -128 -289 -128 l-85 0 52 -97 c29 -54 59 -104 67
-110 12 -10 90 -13 311 -13 185 0 311 -4 336 -11 59 -17 121 -64 152 -116 23
-40 27 -59 27 -118 0 -105 -49 -185 -139 -226 -36 -17 -72 -19 -396 -19 -296
0 -364 3 -410 16 -93 27 -170 75 -249 154 -70 70 -82 90 -195 308 l-119 232
-123 0 c-150 0 -211 12 -266 54 -54 41 -82 83 -97 145 -35 149 83 301 235 301
l52 0 -1 75 -1 75 -31 0 c-110 0 -219 81 -249 184 -33 113 17 234 120 289 35
19 60 22 202 25 l162 4 123 231 c109 205 131 239 193 302 73 75 128 112 223
151 56 23 63 24 425 24 354 0 369 -1 410 -21z"/>
</g>
</svg>
